PathFileType	4	(X/Y/Z)	Kaydara	
DataRate	CameraRate	NumFrames	NumMarkers	Units	OrigDataRate	OrigDataStartFrame	OrigNumFrames	
60.00	60.00	4	74	mm	60.00	664	134	
Frame#	Time	Z_lasi			Z_rasi			Z_rpsi			Z_lpsi			Z_fneck			Z_bneck			Z_fhead			Z_lhead			Z_rshld			Z_relbtop			Z_relbext			Z_relblow			Z_rwrext			Z_rwrtop			Z_rwrlow			Z_lshld			Z_lelbext			Z_lelblow			Z_lelbtop			Z_lwrext			Z_lwrtop			Z_lwrlow			Z_rtopleg			Z_rkneefr			Z_rkneebk			Z_rkneeis			Z_lkneefr			Z_lknssbk			Z_lkneeis			Z_rankfr			Z_rankis			Z_rankbk			Z_lankfr			Z_lankbk			Z_lankis			Z_rhead			Z_ltopleg			N_rpsi			N_lpsi			N_fneck			N_bneck			N_fhead			N_rhead			N_lhead			N_rshld			N_relbtop			N_relbext			N_relblow			N_rwrext			N_rwrtop			N_rwrlow			N_lshld			N_lelbext			N_lelblow			N_lelbtop			N_lwrext			N_lwrtop			N_lwrlow			N_rtopleg			N_ltopleg			N_rkneefr			N_rkneebk			N_rkneeis			N_lkneefr			N_lknssbk			N_lkneeis			N_rankfr			N_rankis			N_rankbk			N_lankfr			N_lankbk			N_lankis			N_lasi			N_rasi			
		X1	Y1	Z1	X2	Y2	Z2	X3	Y3	Z3	X4	Y4	Z4	X5	Y5	Z5	X6	Y6	Z6	X7	Y7	Z7	X8	Y8	Z8	X9	Y9	Z9	X10	Y10	Z10	X11	Y11	Z11	X12	Y12	Z12	X13	Y13	Z13	X14	Y14	Z14	X15	Y15	Z15	X16	Y16	Z16	X17	Y17	Z17	X18	Y18	Z18	X19	Y19	Z19	X20	Y20	Z20	X21	Y21	Z21	X22	Y22	Z22	X23	Y23	Z23	X24	Y24	Z24	X25	Y25	Z25	X26	Y26	Z26	X27	Y27	Z27	X28	Y28	Z28	X29	Y29	Z29	X30	Y30	Z30	X31	Y31	Z31	X32	Y32	Z32	X33	Y33	Z33	X34	Y34	Z34	X35	Y35	Z35	X36	Y36	Z36	X37	Y37	Z37	X38	Y38	Z38	X39	Y39	Z39	X40	Y40	Z40	X41	Y41	Z41	X42	Y42	Z42	X43	Y43	Z43	X44	Y44	Z44	X45	Y45	Z45	X46	Y46	Z46	X47	Y47	Z47	X48	Y48	Z48	X49	Y49	Z49	X50	Y50	Z50	X51	Y51	Z51	X52	Y52	Z52	X53	Y53	Z53	X54	Y54	Z54	X55	Y55	Z55	X56	Y56	Z56	X57	Y57	Z57	X58	Y58	Z58	X59	Y59	Z59	X60	Y60	Z60	X61	Y61	Z61	X62	Y62	Z62	X63	Y63	Z63	X64	Y64	Z64	X65	Y65	Z65	X66	Y66	Z66	X67	Y67	Z67	X68	Y68	Z68	X69	Y69	Z69	X70	Y70	Z70	X71	Y71	Z71	X72	Y72	Z72	X73	Y73	Z73	X74	Y74	Z74	

34	11.050	-1155.48958	983.67683	575.67142	-1012.66029	981.51657	767.09778	-1183.78387	1048.16597	854.82933	-1299.56741	1048.02429	697.96127	-1033.24486	1451.47217	633.89565	-1118.86772	1513.95386	697.58095	-921.27319	1618.69965	634.31408	-1081.86081	1622.11090	742.26730	-922.80739	1398.52570	802.62199	-752.26112	1220.44151	743.35960	-786.89690	1156.01334	727.16354	-773.69049	1217.50412	666.02386	-573.33065	1108.00018	570.41477	-541.79893	1132.30896	594.93896	-546.48037	1172.58461	570.28259	-1259.41254	1415.70816	556.91174	-1287.70035	1103.59291	604.78142	-1314.67407	1134.14330	521.50303	-1359.66278	1103.83926	585.01534	-1296.15936	911.32957	472.39635	-1270.62035	932.95685	446.30241	-1233.73627	928.67798	473.25474	-1058.98926	879.14413	862.26013	-1029.81621	412.01260	727.86942	-1071.70151	434.20929	805.03601	-1121.32820	433.25562	698.97476	-1110.96016	442.99259	483.00156	-1192.23618	471.91769	480.32410	-1131.67389	469.00913	587.28504	-1080.67894	155.05337	724.17450	-1157.80586	158.39989	699.84993	-1143.42957	146.73863	770.24353	-1237.59224	200.06470	542.36271	-1229.53148	204.96325	608.64025	-1163.62480	198.53184	571.23634	-1106.97647	1623.77441	615.27054	-1258.87192	927.98622	573.69724	217.39254	1015.51895	317.28342	265.08963	1049.93286	553.89317	-29.96074	1449.00711	428.81065	68.55448	1525.67459	364.80949	-102.16175	1696.85410	365.00866	32.92449	1617.87842	286.74385	43.14223	1662.53693	437.46670	-35.92183	1392.21497	226.88839	-209.22096	1160.35774	286.40875	-164.06048	1141.96518	353.05199	-225.72748	1213.42392	334.64176	-409.45976	1084.82201	449.29371	-434.76997	1127.52159	432.29603	-421.99181	1156.92261	464.16550	128.43569	1478.21869	612.77477	269.47344	1182.30736	675.01709	194.49936	1242.50854	628.75664	201.76859	1224.03809	727.15088	6.20754	1164.85054	618.97331	-5.09459	1214.79721	633.30883	15.21263	1234.01779	594.55292	93.26818	847.54387	260.79203	135.76058	878.83331	664.62517	-32.47186	420.13996	300.88327	61.52594	494.37214	301.04916	18.72492	453.13526	400.57507	-53.26525	437.22321	551.68285	31.49200	457.64458	484.45126	41.40495	457.70355	602.38167	191.67688	204.04333	324.76505	214.57031	226.08219	388.85685	247.55661	240.64560	319.26188	19.68924	122.04147	525.44136	86.32727	137.05865	460.27584	11.75919	137.28955	456.97544	58.25485	990.23560	603.00644	-12.52294	956.53244	390.86918 
35	11.067	-1151.33713	982.95395	576.38660	-1008.13126	980.91049	767.37747	-1178.65295	1048.40294	855.43892	-1294.97345	1048.13583	698.90854	-1025.81314	1450.24933	632.80037	-1111.26877	1513.56354	696.53030	-913.15109	1617.03827	632.62779	-1073.33580	1621.26831	741.38840	-916.00494	1397.84943	801.73050	-747.23511	1217.03430	742.86835	-783.56400	1152.96921	728.12279	-768.63197	1212.82677	666.15959	-569.16695	1097.21214	576.48293	-537.83943	1123.79128	598.63873	-542.72015	1162.10068	571.50200	-1252.11449	1415.66254	556.07391	-1281.39465	1103.96446	603.54362	-1307.03903	1134.66103	520.31342	-1353.05664	1103.62320	582.58568	-1284.23859	913.05969	469.62166	-1258.38211	935.33783	444.36352	-1222.03453	931.32248	471.89754	-1054.34898	878.65280	862.85248	-1027.28737	411.47114	728.52219	-1069.10019	433.84224	805.53482	-1118.47092	433.14877	699.15260	-1097.36473	442.77950	487.30053	-1179.33128	468.88893	484.90166	-1118.87924	468.06377	591.54915	-1079.88487	154.78987	724.06967	-1157.25182	158.52963	699.95712	-1142.72911	146.85904	770.22873	-1213.34290	195.52567	544.75639	-1205.58182	200.43421	611.19061	-1139.41017	196.84761	573.29723	-1098.54431	1622.93365	614.58832	-1256.63002	928.04497	574.90791	206.55382	1016.19034	315.08244	260.67814	1050.63766	550.27214	-36.99739	1450.21332	428.69331	60.77741	1526.81274	363.67855	-108.19465	1698.34885	364.86950	26.31101	1619.00970	286.63904	36.68509	1663.36365	437.48318	-45.43079	1391.62949	227.10815	-214.58525	1154.94286	286.01217	-170.04076	1138.27133	352.25510	-233.29662	1208.26317	333.81886	-412.99969	1073.89038	445.69057	-440.10654	1115.37949	429.40071	-428.95351	1146.36459	460.39391	123.94705	1479.97940	610.99316	266.36728	1184.49303	674.07425	191.64351	1244.79897	627.63477	199.16306	1226.43311	725.85007	2.07642	1166.62292	620.42034	-9.15218	1216.61072	635.02037	10.31844	1235.86655	595.73200	81.08181	849.46083	260.53120	134.88439	879.47067	663.87138	-51.61204	425.12112	302.00329	43.23775	498.13362	300.71167	1.91012	457.99980	401.32191	-53.75691	436.82652	553.51429	29.78888	457.98191	485.27885	41.57129	457.75486	603.16803	171.48746	207.10802	320.23170	195.73599	228.55267	383.56960	227.58080	243.24917	313.63474	21.28524	121.57407	525.47626	86.23380	137.26957	459.87267	11.53915	137.02713	457.10381	55.12394	991.55930	604.82037	-21.38164	957.70622	393.41034 
36	11.083	-1147.06451	982.17628	576.85295	-1003.86147	980.36430	767.79419	-1174.03496	1048.65692	856.00143	-1290.32578	1047.99644	699.44885	-1019.20929	1449.08859	631.67816	-1104.57741	1513.21686	695.24605	-905.55122	1615.36453	630.90885	-1065.28053	1620.61844	740.01534	-910.40726	1397.29019	801.72562	-743.61694	1212.98859	745.01404	-779.99153	1149.39400	732.92198	-765.16273	1206.89598	668.76244	-566.49380	1084.68407	582.29687	-535.19108	1111.94084	603.07178	-539.76696	1149.20845	574.84432	-1245.17029	1415.30594	554.43581	-1275.08835	1104.00826	601.54499	-1299.60297	1134.88922	518.30765	-1346.75949	1103.07739	579.75288	-1272.64488	914.21608	466.59912	-1246.62216	936.84608	441.98437	-1210.87883	933.41476	470.24052	-1050.19539	878.26553	863.68347	-1024.73396	410.83817	729.00948	-1066.52176	433.56678	805.98442	-1116.05133	433.26393	699.70345	-1084.47243	442.57133	491.85383	-1166.99142	465.70999	489.36237	-1106.88751	467.13863	596.17931	-1079.03908	154.59269	723.94569	-1156.64757	158.70186	699.93446	-1142.01828	147.05365	770.30296	-1189.67766	191.46105	547.18540	-1182.34062	196.04824	613.64464	-1116.01135	195.39106	575.82298	-1091.09665	1622.37488	613.28583	-1253.90305	927.39120	576.02558	196.50803	1017.90352	313.00709	256.37939	1051.84723	546.56265	-44.03474	1451.79260	428.71758	52.99962	1528.32397	362.68929	-114.36224	1700.32684	364.63737	19.97768	1620.65384	286.07540	30.34899	1664.81689	436.97159	-54.30929	1391.76941	226.79934	-218.82395	1150.00313	283.10856	-174.61830	1134.46747	349.20216	-239.68311	1202.92694	330.25436	-414.09409	1062.59178	444.13628	-442.94544	1102.51671	426.77845	-432.99515	1134.09134	457.43626	119.44243	1482.08176	609.35780	263.12195	1186.96320	672.03117	189.33676	1247.44484	626.27174	196.81673	1229.09325	724.37569	-1.80026	1168.38158	622.00306	-12.95614	1218.44330	636.61236	6.22762	1237.77550	597.12582	69.29417	851.85417	260.53200	133.15740	880.59540	663.33618	-70.08821	430.10368	303.21117	25.60602	502.37122	298.59219	-14.40152	463.20953	401.41899	-53.65273	436.79298	553.92231	28.35096	458.15800	485.35393	42.02544	458.16826	602.99545	149.52478	207.78336	315.10860	176.32187	228.67935	377.49943	205.98583	242.64521	306.76071	21.61270	121.58917	525.69229	86.41574	137.14586	460.06702	11.44295	137.25803	457.39590	51.76515	993.37898	606.46187	-29.60962	959.33914	396.14491 
37	11.100	-1142.49191	981.46950	577.27291	-999.72054	979.98154	768.51387	-1169.85001	1048.71719	856.23543	-1285.90347	1047.67265	699.56139	-1013.07243	1447.85324	630.34225	-1098.38440	1512.57874	693.66684	-898.64059	1613.70377	628.91926	-1058.10921	1619.95728	738.34106	-905.06699	1396.16699	801.54160	-739.60625	1207.25616	748.77586	-776.06247	1144.61052	738.71857	-761.19583	1199.93599	672.53586	-565.56980	1071.21864	586.67206	-533.20885	1098.18268	605.87349	-537.64915	1134.87892	577.00893	-1238.41949	1414.60739	552.12261	-1269.15985	1103.61671	599.12907	-1292.07352	1134.55399	515.90851	-1340.36850	1102.17636	575.99091	-1261.55670	914.82254	463.52886	-1235.31944	937.78732	439.42760	-1199.95354	934.93629	468.21865	-1046.16890	877.91672	864.44992	-1022.36015	410.53497	729.57573	-1064.17770	433.27122	806.56845	-1113.20564	433.30055	699.87633	-1072.30354	442.32746	496.37882	-1155.42580	462.60872	493.95084	-1094.00864	465.86803	599.62860	-1078.14697	154.56809	724.09729	-1155.94582	158.91983	699.90738	-1141.55045	147.22480	770.33272	-1166.82922	187.78685	549.86839	-1159.53651	192.22549	616.24302	-1093.54439	194.45286	578.70098	-1084.13330	1621.50589	611.73527	-1248.55888	926.03241	575.80585	187.06898	1020.07896	311.35998	251.45849	1053.84300	543.50311	-50.45017	1453.86948	428.14571	45.84375	1530.33295	361.10382	-120.02789	1702.50061	363.94547	13.70392	1622.66251	285.26323	24.38436	1666.77719	436.21799	-62.80653	1392.46750	226.08355	-223.36895	1146.28876	279.13984	-178.56579	1130.99861	344.35101	-245.28772	1197.67433	326.37932	-414.67670	1050.63095	443.27702	-444.52106	1090.19089	426.59466	-434.57989	1121.19202	458.08083	114.74909	1484.38721	607.58404	259.35171	1190.05005	665.88005	186.43276	1250.36591	622.28413	194.63329	1231.82465	722.43347	-5.51823	1170.32265	623.28644	-16.65630	1220.25749	637.95696	1.72135	1239.57039	598.24913	57.48491	854.79950	261.07433	131.19955	881.88591	662.00218	-87.72399	434.78432	305.89746	9.42846	504.35837	298.44652	-26.34310	465.03677	399.69437	-53.30335	437.09229	553.67786	29.54673	459.08928	482.29618	42.65932	458.74947	602.04586	125.53074	206.18538	310.46379	156.00625	226.78387	371.34483	182.72881	239.52963	298.99731	21.93776	121.78662	525.73708	86.21264	137.08055	459.76395	11.36817	137.55878	457.61520	48.13573	995.32486	607.65583	-37.70652	961.83311	399.09969 
